<svg width="25" height="25" viewBox="0 0 25 25" fill="none" xmlns="http://www.w3.org/2000/svg">
<path d="M21.875 10.4167C21.875 17.7084 12.5 23.9584 12.5 23.9584C12.5 23.9584 3.125 17.7084 3.125 10.4167C3.125 7.93034 4.11272 5.54577 5.87087 3.78762C7.62903 2.02947 10.0136 1.04175 12.5 1.04175C14.9864 1.04175 17.371 2.02947 19.1291 3.78762C20.8873 5.54577 21.875 7.93034 21.875 10.4167Z" fill="#C966F6"/>
<path d="M12.5001 16.5398C15.3766 16.5398 17.7084 14.0032 17.7084 10.874C17.7084 7.74491 15.3766 5.20825 12.5001 5.20825C9.6236 5.20825 7.29175 7.74491 7.29175 10.874C7.29175 14.0032 9.6236 16.5398 12.5001 16.5398Z" fill="white"/>
<path d="M9.94561 8.55762L9.6626 8.86548L11.0739 10.4007L11.3569 10.0929L9.94561 8.55762Z" fill="#15A6B3"/>
<path d="M11.069 8.55493L9.65771 10.0902L9.94072 10.398L11.352 8.8628L11.069 8.55493Z" fill="#15A6B3"/>
<path d="M13.8486 8.55713L13.5657 8.86499L14.977 10.4002L15.26 10.0924L13.8486 8.55713Z" fill="#15A6B3"/>
<path d="M14.9719 8.55444L13.5605 10.0897L13.8436 10.3975L15.2549 8.86231L14.9719 8.55444Z" fill="#15A6B3"/>
<path d="M14.896 12.8276H10.1511V13.1198H14.896V12.8276Z" fill="#15A6B3"/>
<path d="M13.9849 13.0799H14.6695C14.6695 13.0799 14.6695 12.8622 14.6695 13.4408C14.6695 14.0195 13.9849 14.0195 13.9849 13.4408C13.9849 13.1544 13.9849 13.0799 13.9849 13.0799Z" fill="#15A6B3"/>
</svg>
